<?xml version="1.0" encoding="UTF-8"?>
<svg xmlns="http://www.w3.org/2000/svg" xmlns:xlink="http://www.w3.org/1999/xlink" width="10pt" height="11pt" viewBox="0 0 10 11" version="1.1">
<g id="surface1">
<path style=" stroke:none;fill-rule:nonzero;fill:rgb(0%,0%,0%);fill-opacity:1;" d="M 8.335938 10.558594 C 7.695312 11.136719 6.984375 11.046875 6.304688 10.777344 C 5.585938 10.496094 4.929688 10.480469 4.167969 10.777344 C 3.222656 11.152344 2.71875 11.042969 2.148438 10.558594 C -1.070312 7.492188 -0.59375 2.816406 3.0625 2.640625 C 3.953125 2.683594 4.574219 3.09375 5.09375 3.128906 C 5.871094 2.980469 6.613281 2.5625 7.445312 2.617188 C 8.445312 2.691406 9.191406 3.058594 9.691406 3.714844 C 7.636719 4.859375 8.125 7.367188 10.011719 8.070312 C 9.632812 8.988281 9.148438 9.898438 8.335938 10.566406 Z M 5.023438 2.605469 C 4.925781 1.242188 6.121094 0.121094 7.492188 0.0117188 C 7.683594 1.585938 5.949219 2.761719 5.023438 2.605469 Z M 5.023438 2.605469 "/>
</g>
</svg>
